<?xml version="1.0" encoding="UTF-8"?>
<svg version="1.1" xmlns="http://www.w3.org/2000/svg" width="298" height="123">
<path d="M0 0 C0.99 0 1.98 0 3 0 C3.55945313 1.0209375 4.11890625 2.041875 4.6953125 3.09375 C12.80392405 17.82367623 21.17496833 32.41532396 29.89453125 46.79296875 C30.53152954 47.8435144 30.53152954 47.8435144 31.18139648 48.9152832 C31.95380645 50.18346377 32.7303956 51.44911233 33.51196289 52.71166992 C36 56.78393148 36 56.78393148 36 59 C35.29552734 58.69843994 34.59105469 58.39687988 33.86523438 58.08618164 C31.04236383 56.94099524 31.04236383 56.94099524 28.15039062 56.34936523 C21.8272882 54.81138297 18.42765157 53.11896202 14.90625 47.53515625 C13.73306421 45.39790636 12.59806558 43.23929902 11.5 41.0625 C10.3467594 38.90594008 9.19060588 36.7509348 8.03125 34.59765625 C7.54205078 33.64383057 7.05285156 32.69000488 6.54882812 31.70727539 C4.93541647 28.88711116 3.08996666 26.48197632 1 24 C0.34197388 25.15000488 0.34197388 25.15000488 -0.3293457 26.32324219 C-1.96541702 29.17960682 -3.60385622 32.03458565 -5.24389648 34.88867188 C-5.95187533 36.1218523 -6.65891892 37.35557016 -7.36499023 38.58984375 C-8.3827694 40.36862622 -9.40394807 42.14541902 -10.42578125 43.921875 C-11.03848877 44.99018555 -11.65119629 46.05849609 -12.2824707 47.15917969 C-15.59391815 52.63636555 -17.24878171 54.45916371 -23.5625 56.1875 C-27.88499681 57.32451014 -27.88499681 57.32451014 -32 59 C-31.40978811 54.99837244 -30.15443329 52.14707221 -28.11328125 48.66796875 C-27.20968872 47.11553467 -27.20968872 47.11553467 -26.2878418 45.53173828 C-25.635979 44.42813965 -24.98411621 43.32454102 -24.3125 42.1875 C-23.2974837 40.44898195 -22.28246929 38.7104628 -21.26759338 36.97186279 C-19.86619744 34.57508031 -18.45837373 32.18209804 -17.05090332 29.78887939 C-14.70493171 25.79549561 -12.37208488 21.79443668 -10.0378418 17.79418945 C-8.8252381 15.71729163 -7.61062889 13.64156314 -6.39379883 11.56713867 C-5.8448999 10.62974854 -5.29600098 9.6923584 -4.73046875 8.7265625 C-4.24989014 7.90752441 -3.76931152 7.08848633 -3.27416992 6.24462891 C-2.10934848 4.19263268 -1.03208627 2.12129125 0 0 Z " fill="#F4844D" transform="translate(62,8)"/>
<path d="M0 0 C4.5340757 3.87055243 6.30024699 7.89420739 6.765625 13.73828125 C6.89377944 21.28871389 6.21121782 25.95017822 1.3125 31.9375 C-2.82733035 35.32463392 -6.54900396 36.98148225 -11.875 37.5625 C-17.95374667 36.92263193 -22.547118 35.54558957 -26.8125 31 C-30.86813183 25.71773293 -31.69998359 20.68241467 -31.3125 14.125 C-30.52154597 8.13766195 -28.44033571 4.24597003 -24.1875 -0.125 C-16.07187155 -5.10504473 -8.22212769 -4.33530369 0 0 Z M-21.4375 7.1875 C-24.32991122 11.88257595 -23.95348111 16.84511095 -23.4375 22.1875 C-21.89515699 25.88912323 -20.04747018 28.38251491 -16.4375 30.1875 C-11.91426121 30.88338289 -8.54077298 30.79782122 -4.5 28.5625 C-1.28476774 24.86011134 -0.59664484 21.61980356 -0.0625 16.8125 C-0.52387055 12.35258471 -1.89754546 8.88275159 -4.4375 5.1875 C-10.24226369 1.31765754 -16.67575982 1.99287435 -21.4375 7.1875 Z " fill="#6C6D70" transform="translate(226.4375,21.8125)"/>
<path d="M0 0 C2.64 0 5.28 0 8 0 C8.33 4.29 8.66 8.58 9 13 C9.62648437 12.22914062 10.25296875 11.45828125 10.8984375 10.6640625 C11.71570313 9.66117188 12.53296875 8.65828125 13.375 7.625 C14.18710938 6.62726562 14.99921875 5.62953125 15.8359375 4.6015625 C18 2 18 2 20 0 C22.1640625 -0.1953125 22.1640625 -0.1953125 24.625 -0.125 C25.85089844 -0.09792969 25.85089844 -0.09792969 27.1015625 -0.0703125 C28.04128906 -0.03550781 28.04128906 -0.03550781 29 0 C27.09609046 4.7312722 23.36566707 8.05103219 19.90039062 11.66601562 C17.60268245 14.10446225 16.07347186 15.77958441 15 19 C15.4846875 19.53367187 15.969375 20.06734375 16.46875 20.6171875 C31 36.76923077 31 36.76923077 31 40 C27.39062038 40.89850514 24.58885834 41.06012347 21 40 C17.01967065 36.06377402 14.03495404 31.68666942 11 27 C10.34 26.01 9.68 25.02 9 24 C8.67 29.28 8.34 34.56 8 40 C5.36 40 2.72 40 0 40 C0 26.8 0 13.6 0 0 Z " fill="#6C6D70" transform="translate(239,18)"/>
<path d="M0 0 C0.99 0 1.98 0 3 0 C3.32049316 0.57105469 3.64098633 1.14210937 3.97119141 1.73046875 C11.43596509 15.01760748 19.00900229 28.2356244 26.7109375 41.38671875 C27.24041992 42.29470215 27.76990234 43.20268555 28.31542969 44.13818359 C29.53030601 46.2020648 30.76227601 48.25591749 32.00488281 50.30322266 C32.65553711 51.38522949 33.30619141 52.46723633 33.9765625 53.58203125 C34.57807129 54.57050049 35.17958008 55.55896973 35.79931641 56.57739258 C36.19554199 57.37685303 36.59176758 58.17631348 37 59 C36.505 59.99 36.505 59.99 36 61 C32.32141069 60.13561254 30.42781233 59.53799026 28.04052734 56.53588867 C27.4780127 55.5069751 26.91549805 54.47806152 26.3359375 53.41796875 C25.69398437 52.2671582 25.05203125 51.11634766 24.390625 49.93066406 C23.71846057 48.6830986 23.04659133 47.43537406 22.375 46.1875 C21.67635317 44.92181532 20.97581647 43.65717207 20.2734375 42.39355469 C18.85469772 39.83696163 17.44496346 37.27572717 16.04199219 34.71044922 C13.1018463 29.34819969 10.04933781 24.0506614 7 18.75 C6.02026667 17.03678227 5.04103823 15.32327562 4.0625 13.609375 C3.66160156 12.90780273 3.26070312 12.20623047 2.84765625 11.48339844 C2.56792969 10.99387695 2.28820312 10.50435547 2 10 C-0.75746999 13.30538577 -3.02895473 16.58942457 -5.1015625 20.359375 C-5.95379395 21.89827393 -5.95379395 21.89827393 -6.82324219 23.46826172 C-7.41782227 24.55123535 -8.01240234 25.63420898 -8.625 26.75 C-12.92297398 34.50504002 -17.24243169 42.2394885 -21.75 49.875 C-22.15557129 50.56303711 -22.56114258 51.25107422 -22.97900391 51.95996094 C-24.59461082 54.68590504 -26.24183356 57.36275034 -28 60 C-31.125 60.6875 -31.125 60.6875 -34 61 C-32.36590467 54.77786779 -29.01272786 49.60036718 -25.75 44.125 C-24.48682699 41.98316266 -23.2238109 39.84123276 -21.9609375 37.69921875 C-21.30963867 36.59884277 -20.65833984 35.4984668 -19.98730469 34.36474609 C-16.76087821 28.90201763 -13.568938 23.41926413 -10.375 17.9375 C-9.79588867 16.94572754 -9.21677734 15.95395508 -8.62011719 14.93212891 C-5.72247305 9.96827178 -2.84121559 4.99638156 0 0 Z " fill="#E8E9E9" transform="translate(62,34)"/>
<path d="M0 0 C3 1 3 1 4.77758789 4.1394043 C5.43681295 5.52923897 6.08439145 6.92463447 6.72265625 8.32421875 C7.24187904 9.43274956 7.24187904 9.43274956 7.77159119 10.56367493 C8.50336693 12.13093721 9.23017043 13.70052918 9.95239258 15.2722168 C11.05216927 17.66502322 12.16618462 20.05074815 13.28320312 22.43554688 C13.99303834 23.96054175 14.70204918 25.48592067 15.41015625 27.01171875 C15.74040298 27.72132248 16.07064972 28.43092621 16.41090393 29.16203308 C18.19334354 33.04855097 19.73065691 36.90749723 21 41 C18.03 41 15.06 41 12 41 C9 34.375 9 34.375 9 31 C4.05 31 -0.9 31 -6 31 C-6.66 32.98 -7.32 34.96 -8 37 C-8.63815344 38.34721283 -9.29325371 39.68747118 -10 41 C-12.64 41 -15.28 41 -18 41 C-15.36798818 32.05519353 -11.30765443 23.83279205 -7.3125 15.4375 C-6.60304932 13.93706935 -5.89406098 12.43642001 -5.18554688 10.93554688 C-3.4623541 7.28781998 -1.73292193 3.64311429 0 0 Z M1 15 C0.01 17.97 -0.98 20.94 -2 24 C0.31 24 2.62 24 5 24 C4.01 21.03 3.02 18.06 2 15 C1.67 15 1.34 15 1 15 Z " fill="#6D6E71" transform="translate(149,17)"/>
<path d="M0 0 C85.8 0 171.6 0 260 0 C260 0.66 260 1.32 260 2 C174.2 2 88.4 2 0 2 C0 1.34 0 0.68 0 0 Z " fill="#818184" transform="translate(13,99)"/>
<path d="M0 0 C2.64 0 5.28 0 8 0 C8 10.56 8 21.12 8 32 C14.93 32.495 14.93 32.495 22 33 C22 35.31 22 37.62 22 40 C14.74 40 7.48 40 0 40 C0 26.8 0 13.6 0 0 Z " fill="#6E6F72" transform="translate(172,18)"/>
<path d="M0 0 C-2.31006952 6.00248903 -5.26284659 11.59536517 -8.3125 17.25 C-8.86228516 18.36375 -9.41207031 19.4775 -9.97851562 20.625 C-11.76861731 23.88334269 -13.31020005 26.42574032 -16 29 C-20.41652778 30.24783018 -24.44197099 30.344198 -29 30 C-28.13619271 24.73066094 -25.94608581 20.97643058 -23.25 16.4375 C-22.81945312 15.68275391 -22.38890625 14.92800781 -21.9453125 14.15039062 C-18.32062452 7.99167677 -14.65138456 4.36108396 -7.875 1.75 C-7.02679688 1.41484375 -6.17859375 1.0796875 -5.3046875 0.734375 C-3 0 -3 0 0 0 Z " fill="#F16125" transform="translate(43,65)"/>
<path d="M0 0 C6.57066042 0.51873635 13.44990237 3.25839306 17.9765625 8.125 C20.62018787 11.88119357 22.94624544 15.77870218 25.25 19.75 C25.70890625 20.52988281 26.1678125 21.30976562 26.640625 22.11328125 C30 27.86221168 30 27.86221168 30 29 C25.38 29 20.76 29 16 29 C13.87951418 25.35358094 11.76074675 21.70627102 9.64624023 18.05639648 C8.92652788 16.81526153 8.20583198 15.57469637 7.48413086 14.3347168 C6.44645725 12.55146078 5.41234751 10.76618003 4.37890625 8.98046875 C3.7557251 7.90692139 3.13254395 6.83337402 2.49047852 5.72729492 C1 3 1 3 0 0 Z " fill="#F16125" transform="translate(84,65)"/>
<path d="M0 0 C2.5625 1.5 2.5625 1.5 4 3 C3.34 4.32 2.68 5.64 2 7 C0.9790625 6.4740625 0.9790625 6.4740625 -0.0625 5.9375 C-3.7087789 4.77379397 -6.28489978 5.27154898 -10 6 C-10.28784504 9.05115745 -10.4299258 11.95827494 -10 15 C-7.96283266 17.38941123 -7.96283266 17.38941123 -5 18 C-2.21776622 17.30514736 -2.21776622 17.30514736 0 16 C-1.32 15.67 -2.64 15.34 -4 15 C-4 13.35 -4 11.7 -4 10 C-0.7 10 2.6 10 6 10 C6.32470459 14.13998349 6.4304413 16.33999001 4.125 19.875 C1.1864288 22.8135712 0.45242245 22.97033295 -3.8125 23.25 C-8.63642428 23.18008805 -11.25435665 21.56505956 -14.8125 18.375 C-16.68587786 14.62824429 -16.77902557 11.09342525 -16 7 C-12.1544354 0.13495505 -7.33702908 -0.78192139 0 0 Z " fill="#6D6E71" transform="translate(193,72)"/>
<path d="M0 0 C5.47614585 4.00243791 10.29807212 8.10215846 15 13 C15.33 9.04 15.66 5.08 16 1 C17.32 1 18.64 1 20 1 C20 8.59 20 16.18 20 24 C15.98012591 21.99006295 13.85483005 20.06153611 10.75 16.875 C9.85796875 15.96492188 8.9659375 15.05484375 8.046875 14.1171875 C7.37140625 13.41851562 6.6959375 12.71984375 6 12 C5.67 15.63 5.34 19.26 5 23 C3.68 23.33 2.36 23.66 1 24 C0 23 0 23 -0.11352539 20.77514648 C-0.10828857 19.81680908 -0.10305176 18.85847168 -0.09765625 17.87109375 C-0.09443359 16.83662109 -0.09121094 15.80214844 -0.08789062 14.73632812 C-0.07951172 13.64771484 -0.07113281 12.55910156 -0.0625 11.4375 C-0.05798828 10.34501953 -0.05347656 9.25253906 -0.04882812 8.12695312 C-0.03699826 5.41791505 -0.02051543 2.70898401 0 0 Z " fill="#6B6D6F" transform="translate(147,71)"/>
<path d="M0 0 C3.19438218 2.66198515 4.6630264 4.1563656 5.40625 8.22265625 C5.5932714 12.89039868 5.11404674 16.32987349 2 20 C-1.75665891 22.31487085 -4.53056847 22.2737674 -8.8046875 21.66015625 C-12.67676641 20.49577665 -14.06486212 18.43330915 -16 15 C-16.78463301 11.09968835 -16.37069777 7.87796839 -14.8125 4.1875 C-10.58254229 -0.91762138 -6.22454279 -2.22125821 0 0 Z M-10 5 C-11.54586876 8.09173752 -11.29359521 10.59429552 -11 14 C-9.47722993 16.60720318 -9.47722993 16.60720318 -7 18 C-4.38608611 18.24401278 -4.38608611 18.24401278 -2 17 C0.1155391 14.94707246 0.1155391 14.94707246 1 12 C0.67440917 8.27692654 0.67440917 8.27692654 -1 5 C-4.51415529 2.68805573 -6.56391478 2.54565342 -10 5 Z " fill="#6D6E71" transform="translate(223,73)"/>
<path d="M0 0 C2 2 2 2 2 5 C-1.01031744 5.93423645 -1.86650268 6.04449911 -5 5 C-3.6636586 9.00902419 -1.50572968 9.80891895 2 12 C3 13 3 13 3.3125 15.8125 C3 19 3 19 1.4375 21.375 C-1.93510779 23.62340519 -4.02512383 23.56783945 -8 23 C-10.4375 21 -10.4375 21 -12 19 C-11.505 17.515 -11.505 17.515 -11 16 C-9.68 16 -8.36 16 -7 16 C-7 16.66 -7 17.32 -7 18 C-5.35 18 -3.7 18 -2 18 C-3.50549556 13.78461243 -6.29317565 12.28718949 -10 10 C-11 9 -11 9 -11.25 6.125 C-11 3 -11 3 -10 1.125 C-6.66094446 -0.75321874 -3.79001126 -0.30079454 0 0 Z " fill="#6D6E71" transform="translate(270,72)"/>
<path d="M0 0 C5.28 0 10.56 0 16 0 C16 1.65 16 3.3 16 5 C14.35 5 12.7 5 11 5 C11 10.61 11 16.22 11 22 C9.68 22.33 8.36 22.66 7 23 C6 22 6 22 5.90234375 18.18359375 C5.90901911 16.60153318 5.92098125 15.01948841 5.9375 13.4375 C5.94201172 12.63119141 5.94652344 11.82488281 5.95117188 10.99414062 C5.96299482 8.99606244 5.98093086 6.99802217 6 5 C4.02 5 2.04 5 0 5 C0 3.35 0 1.7 0 0 Z " fill="#6C6C6F" transform="translate(235,72)"/>
<path d="M0 0 C1.65 0 3.3 0 5 0 C5 7.26 5 14.52 5 22 C3.68 22.33 2.36 22.66 1 23 C0 22 0 22 -0.11352539 19.86694336 C-0.10828857 18.95050049 -0.10305176 18.03405762 -0.09765625 17.08984375 C-0.09443359 16.10048828 -0.09121094 15.11113281 -0.08789062 14.09179688 C-0.07951172 13.05087891 -0.07113281 12.00996094 -0.0625 10.9375 C-0.05798828 9.89271484 -0.05347656 8.84792969 -0.04882812 7.77148438 C-0.03699913 5.1809334 -0.02051689 2.59049441 0 0 Z " fill="#696B6D" transform="translate(132,72)"/>
<path d="M0 0 C4.66666667 0 9.33333333 0 14 0 C14 2.64 14 5.28 14 8 C10.04 8 6.08 8 2 8 C2 6.02 2 4.04 2 2 C1.34 2 0.68 2 0 2 C0 1.34 0 0.68 0 0 Z " fill="#A7A9AB" transform="translate(273,1)"/>
<path d="M0 0 C1.134375 0.020625 2.26875 0.04125 3.4375 0.0625 C3.251875 1.155625 3.06625 2.24875 2.875 3.375 C2.1796932 6.99874133 2.1796932 6.99874133 3.4375 10.0625 C3.1075 10.7225 2.7775 11.3825 2.4375 12.0625 C0.4575 12.0625 -1.5225 12.0625 -3.5625 12.0625 C-5.51393115 9.19274831 -5.55180952 7.93635237 -5.25 4.375 C-4.35784884 0.07645349 -4.35784884 0.07645349 0 0 Z M-1.5625 2.0625 C-0.5625 4.0625 -0.5625 4.0625 -0.5625 4.0625 Z " fill="#919396" transform="translate(169.5625,109.9375)"/>
<path d="M0 0 C0.99 0 1.98 0 3 0 C3 4.29 3 8.58 3 13 C0.69 13 -1.62 13 -4 13 C-4.33 10.69 -4.66 8.38 -5 6 C-4.175 5.566875 -3.35 5.13375 -2.5 4.6875 C-1.2625 3.8521875 -1.2625 3.8521875 0 3 C0 2.01 0 1.02 0 0 Z M-1 6 C-1.33 7.65 -1.66 9.3 -2 11 C-1.34 11 -0.68 11 0 11 C0 9.35 0 7.7 0 6 C-0.33 6 -0.66 6 -1 6 Z " fill="#949598" transform="translate(271,106)"/>
<path d="M0 0 C2.4375 0.1875 2.4375 0.1875 3.4375 1.1875 C3.57865161 3.85808851 3.47997107 6.51182238 3.4375 9.1875 C0.5625 9.3125 0.5625 9.3125 -2.5625 9.1875 C-4.5625 7.1875 -4.5625 7.1875 -4.8125 4.6875 C-4.45862826 1.14878262 -3.54553886 0.25942967 0 0 Z " fill="#909497" transform="translate(57.5625,109.8125)"/>
<path d="M0 0 C2.5 0.125 2.5 0.125 3.5 1.125 C3.64115161 3.79558851 3.54247107 6.44932238 3.5 9.125 C0.625 9.3125 0.625 9.3125 -2.5 9.125 C-4.5 6.125 -4.5 6.125 -4.1875 3.5 C-3.22096128 0.16104806 -3.22096128 0.16104806 0 0 Z " fill="#939497" transform="translate(211.5,109.875)"/>
<path d="M0 0 C2.4375 0.1875 2.4375 0.1875 3.4375 1.1875 C3.57865161 3.85808851 3.47997107 6.51182238 3.4375 9.1875 C0.5625 9.3125 0.5625 9.3125 -2.5625 9.1875 C-4.5625 7.1875 -4.5625 7.1875 -4.8125 4.6875 C-4.45862826 1.14878262 -3.54553886 0.25942967 0 0 Z " fill="#96979B" transform="translate(137.5625,109.8125)"/>
<path d="M0 0 C2.4375 0.1875 2.4375 0.1875 3.4375 1.1875 C3.57865161 3.85808851 3.47997107 6.51182238 3.4375 9.1875 C1.1275 9.1875 -1.1825 9.1875 -3.5625 9.1875 C-4.1875 5.8125 -4.1875 5.8125 -4.5625 2.1875 C-2.5625 0.1875 -2.5625 0.1875 0 0 Z " fill="#929396" transform="translate(109.5625,109.8125)"/>
<path d="M0 0 C0.79953138 3.28696233 1.09658936 4.71023192 0 8 C-1.99954746 8.04254356 -4.00041636 8.04080783 -6 8 C-7 7 -7 7 -7.0625 3.4375 C-7.041875 2.303125 -7.02125 1.16875 -7 0 C-4.3333581 -1.33332095 -2.83319697 -0.67102033 0 0 Z " fill="#95979B" transform="translate(230,111)"/>
<path d="M0 0 C2.31 0 4.62 0 7 0 C8.4783226 2.95664519 8.06032783 5.74229737 8 9 C7.01 9 6.02 9 5 9 C4.67 7.02 4.34 5.04 4 3 C3.67 4.98 3.34 6.96 3 9 C2.01 9 1.02 9 0 9 C0 6.03 0 3.06 0 0 Z " fill="#919396" transform="translate(192,110)"/>
<path d="M0 0 C2.5 0.125 2.5 0.125 3.5 1.125 C3.64115161 3.79558851 3.54247107 6.44932238 3.5 9.125 C1.50045254 9.16754356 -0.50041636 9.16580783 -2.5 9.125 C-3.5 8.125 -3.5 8.125 -3.625 4.625 C-3.46601073 0.17330054 -3.46601073 0.17330054 0 0 Z " fill="#929397" transform="translate(254.5,109.875)"/>
<path d="M0 0 C2.31 0 4.62 0 7 0 C8.4783226 2.95664519 8.06032783 5.74229737 8 9 C7.01 9 6.02 9 5 9 C4.67 7.02 4.34 5.04 4 3 C3.67 4.98 3.34 6.96 3 9 C2.01 9 1.02 9 0 9 C0 6.03 0 3.06 0 0 Z " fill="#9B9D9F" transform="translate(149,110)"/>
<path d="M0 0 C2.625 0.375 2.625 0.375 5 1 C5.79953138 4.28696233 6.09658936 5.71023192 5 9 C3.00045254 9.04254356 0.99958364 9.04080783 -1 9 C-2 8 -2 8 -2.1875 5.0625 C-2 2 -2 2 0 0 Z " fill="#939498" transform="translate(40,110)"/>
<path d="M0 0 C1.65 0 3.3 0 5 0 C4.67 0.99 4.34 1.98 4 3 C4.66 3.33 5.32 3.66 6 4 C5.67 5.65 5.34 7.3 5 9 C3.02 9 1.04 9 -1 9 C-0.67 8.01 -0.34 7.02 0 6 C-0.33 5.67 -0.66 5.34 -1 5 C-0.71395102 3.32457024 -0.38218767 1.65614657 0 0 Z " fill="#90969B" transform="translate(12,110)"/>
<path d="M0 0 C0.99 0 1.98 0 3 0 C3 0.66 3 1.32 3 2 C3.66 2 4.32 2 5 2 C5 2.66 5 3.32 5 4 C4.34 4 3.68 4 3 4 C3 5.65 3 7.3 3 9 C3.66 9 4.32 9 5 9 C5 9.66 5 10.32 5 11 C4.01 11.33 3.02 11.66 2 12 C1.34 11.67 0.68 11.34 0 11 C-0.44921875 9.00390625 -0.44921875 9.00390625 -0.6875 6.5625 C-0.77386719 5.75941406 -0.86023438 4.95632812 -0.94921875 4.12890625 C-1 2 -1 2 0 0 Z " fill="#919598" transform="translate(26,108)"/>
<path d="M0 0 C0.99 0 1.98 0 3 0 C3.33 4.29 3.66 8.58 4 13 C2.68 13 1.36 13 0 13 C0 8.71 0 4.42 0 0 Z " fill="#939496" transform="translate(69,106)"/>
<path d="M0 0 C1.32 0 2.64 0 4 0 C4 3.96 4 7.92 4 12 C3.01 12 2.02 12 1 12 C0.67 8.04 0.34 4.08 0 0 Z " fill="#8F9192" transform="translate(180,107)"/>
<path d="M0 0 C1.98 0 3.96 0 6 0 C5.67 0.99 5.34 1.98 5 3 C4.34 3 3.68 3 3 3 C3 4.98 3 6.96 3 9 C2.01 9 1.02 9 0 9 C0 6.03 0 3.06 0 0 Z " fill="#939496" transform="translate(93,110)"/>
<path d="M0 0 C0.99 0 1.98 0 3 0 C4.4783226 2.95664519 4.06032783 5.74229737 4 9 C3.01 9 2.02 9 1 9 C1 6.69 1 4.38 1 2 C0.34 1.67 -0.32 1.34 -1 1 C-0.67 0.67 -0.34 0.34 0 0 Z " fill="#AEAFB1" transform="translate(196,110)"/>
<path d="M0 0 C1.65 0 3.3 0 5 0 C4.67 0.99 4.34 1.98 4 3 C3.34 3 2.68 3 2 3 C2 4.98 2 6.96 2 9 C1.34 9 0.68 9 0 9 C0 6.03 0 3.06 0 0 Z " fill="#939497" transform="translate(239,110)"/>
</svg>
